<?xml version="1.0" encoding="utf-8"?>
<!-- Generator: Adobe Illustrator 24.0.0, SVG Export Plug-In . SVG Version: 6.00 Build 0)  -->
<svg version="1.1" id="Layer_1" xmlns="http://www.w3.org/2000/svg" xmlns:xlink="http://www.w3.org/1999/xlink" x="0px" y="0px"
	 viewBox="0 0 566.93 151.87" style="enable-background:new 0 0 566.93 151.87;" xml:space="preserve">
<style type="text/css">
	.st0{fill:#39B54A;}
	.st1{fill:#939598;}
	.st2{clip-path:url(#SVGID_2_);}
	.st3{fill:#FFF200;}
	.st4{fill:#8DC63F;}
	.st5{fill:#00AEEF;}
	.st6{fill:#EE2A7B;}
	.st7{fill:#92278F;}
	.st8{clip-path:url(#SVGID_4_);}
</style>
<g>
	<g>
		<g>
			<path class="st0" d="M170.7,128.51v-13.96h-0.27c-1.98,0-3.57-1.59-3.57-3.57c0-1.98,1.59-3.57,3.57-3.57h0.27v-3.68
				c0-2.31,1.87-4.18,4.18-4.18c2.31,0,4.18,1.87,4.18,4.18v3.68h3.68c1.98,0,3.57,1.59,3.57,3.57c0,1.98-1.59,3.57-3.57,3.57h-3.68
				v12.59c0,1.92,0.82,2.86,2.69,2.86c0.27,0,0.82-0.05,0.99-0.05c1.87,0,3.46,1.54,3.46,3.46c0,1.48-0.99,2.69-2.14,3.13
				c-1.54,0.6-2.97,0.82-4.78,0.82C174.16,137.36,170.7,135.33,170.7,128.51z"/>
			<path class="st0" d="M218.9,133.02c0,2.31-1.87,4.18-4.18,4.18c-2.31,0-4.18-1.87-4.18-4.18v-0.33c-1.92,2.47-4.4,4.73-8.63,4.73
				c-6.32,0-10-4.18-10-10.94v-15.23c0-2.31,1.87-4.18,4.18-4.18c2.31,0,4.18,1.87,4.18,4.18v12.59c0,3.96,1.87,5.99,5.06,5.99
				s5.22-2.03,5.22-5.99v-12.59c0-2.31,1.87-4.18,4.18-4.18c2.31,0,4.18,1.87,4.18,4.18V133.02z"/>
			<path class="st0" d="M226.37,100.59c0-2.31,1.87-4.18,4.18-4.18c2.31,0,4.18,1.87,4.18,4.18v18.25l10.44-9.89
				c1.21-1.15,2.2-1.87,3.68-1.87c2.25,0,3.68,1.81,3.68,3.74c0,1.43-0.77,2.53-1.92,3.63l-6.6,5.66l7.86,10.61
				c0.71,0.99,1.04,1.76,1.04,2.69c0,2.25-1.81,3.79-3.9,3.79c-1.65,0-2.64-0.55-3.63-1.92l-7.31-10.06l-3.35,3.02v4.78
				c0,2.31-1.87,4.18-4.18,4.18c-2.31,0-4.18-1.87-4.18-4.18V100.59z"/>
			<path class="st0" d="M256.38,128.4v-0.11c0-6.43,4.89-9.4,11.87-9.4c2.97,0,5.11,0.5,7.2,1.21v-0.49c0-3.46-2.14-5.39-6.32-5.39
				c-2.31,0-4.18,0.33-5.77,0.82c-0.49,0.17-0.82,0.22-1.21,0.22c-1.92,0-3.46-1.48-3.46-3.41c0-1.48,0.93-2.75,2.25-3.24
				c2.64-0.99,5.5-1.54,9.4-1.54c4.56,0,7.86,1.21,9.95,3.3c2.2,2.2,3.19,5.44,3.19,9.4v13.41c0,2.25-1.81,4.01-4.07,4.01
				c-2.42,0-4.01-1.7-4.01-3.46v-0.06c-2.03,2.25-4.84,3.74-8.9,3.74C260.94,137.42,256.38,134.23,256.38,128.4z M275.57,126.48V125
				c-1.43-0.66-3.3-1.1-5.33-1.1c-3.57,0-5.77,1.43-5.77,4.07v0.11c0,2.25,1.87,3.57,4.56,3.57
				C272.93,131.65,275.57,129.5,275.57,126.48z"/>
			<path class="st0" d="M290.68,111.25c0-2.31,1.87-4.18,4.18-4.18c2.31,0,4.18,1.87,4.18,4.18v0.33c1.92-2.47,4.4-4.73,8.63-4.73
				c6.32,0,10,4.18,10,10.94v15.23c0,2.31-1.87,4.18-4.18,4.18c-2.31,0-4.18-1.87-4.18-4.18v-12.59c0-3.96-1.87-5.99-5.06-5.99
				c-3.19,0-5.22,2.03-5.22,5.99v12.59c0,2.31-1.87,4.18-4.18,4.18c-2.31,0-4.18-1.87-4.18-4.18V111.25z"/>
			<path class="st0" d="M327.34,143.74c-1.43-0.55-2.36-1.7-2.36-3.24c0-1.87,1.54-3.41,3.41-3.41c0.55,0,0.99,0.11,1.37,0.27
				c2.42,1.1,5,1.76,8.14,1.76c5.72,0,8.41-2.75,8.41-8.03v-1.43c-2.47,2.97-5.17,4.78-9.62,4.78c-6.87,0-13.08-5-13.08-13.74v-0.11
				c0-8.8,6.32-13.74,13.08-13.74c4.56,0,7.26,1.92,9.51,4.4v-0.05c0-2.25,1.87-4.12,4.18-4.12s4.18,1.87,4.18,4.18v18.97
				c0,5.28-1.27,9.13-3.74,11.6c-2.75,2.75-6.98,3.96-12.7,3.96C334.21,145.77,330.8,145.11,327.34,143.74z M346.3,120.71v-0.11
				c0-4.01-3.13-6.82-7.2-6.82s-7.15,2.8-7.15,6.82v0.11c0,4.07,3.08,6.82,7.15,6.82S346.3,124.72,346.3,120.71z"/>
			<path class="st0" d="M377.74,134.07c-0.88-0.55-1.59-1.54-1.59-2.86c0-1.87,1.43-3.3,3.3-3.3c0.6,0,1.21,0.16,1.65,0.44
				c2.8,1.76,5.61,2.64,7.97,2.64c2.42,0,3.52-0.88,3.52-2.2v-0.11c0-1.81-2.86-2.42-6.1-3.41c-4.12-1.21-8.8-3.13-8.8-8.85v-0.11
				c0-5.99,4.84-9.34,10.77-9.34c3.08,0,6.27,0.82,9.13,2.25c1.21,0.6,1.98,1.7,1.98,3.13c0,1.87-1.48,3.3-3.35,3.3
				c-0.6,0-0.99-0.11-1.54-0.38c-2.36-1.15-4.62-1.87-6.38-1.87c-2.03,0-3.08,0.88-3.08,2.03v0.11c0,1.65,2.8,2.42,5.99,3.52
				c4.12,1.37,8.91,3.35,8.91,8.74v0.11c0,6.54-4.89,9.51-11.27,9.51C385.21,137.42,381.31,136.37,377.74,134.07z"/>
			<path class="st0" d="M406.92,128.51v-13.96h-0.27c-1.98,0-3.57-1.59-3.57-3.57c0-1.98,1.59-3.57,3.57-3.57h0.27v-3.68
				c0-2.31,1.87-4.18,4.18-4.18c2.31,0,4.18,1.87,4.18,4.18v3.68h3.68c1.98,0,3.57,1.59,3.57,3.57c0,1.98-1.59,3.57-3.57,3.57h-3.68
				v12.59c0,1.92,0.82,2.86,2.69,2.86c0.27,0,0.83-0.05,0.99-0.05c1.87,0,3.46,1.54,3.46,3.46c0,1.48-0.99,2.69-2.14,3.13
				c-1.54,0.6-2.97,0.82-4.78,0.82C410.39,137.36,406.92,135.33,406.92,128.51z"/>
			<path class="st0" d="M428.25,100.37c0-2.42,2.03-3.9,4.67-3.9c2.64,0,4.67,1.48,4.67,3.9v0.11c0,2.42-2.03,3.96-4.67,3.96
				c-2.64,0-4.67-1.54-4.67-3.96V100.37z M428.74,111.25c0-2.31,1.87-4.18,4.18-4.18s4.18,1.87,4.18,4.18v21.77
				c0,2.31-1.87,4.18-4.18,4.18s-4.18-1.87-4.18-4.18V111.25z"/>
			<path class="st0" d="M443.53,122.3v-0.11c0-8.41,6.43-15.34,15.45-15.34c4.45,0,7.59,1.21,10.06,3.3
				c0.55,0.44,1.32,1.43,1.32,2.86c0,2.09-1.7,3.74-3.79,3.74c-1.1,0-1.92-0.44-2.42-0.83c-1.48-1.15-3.02-1.87-5.22-1.87
				c-4.18,0-7.15,3.68-7.15,8.03v0.11c0,4.51,2.91,8.14,7.48,8.14c2.2,0,3.9-0.77,5.5-2.03c0.44-0.33,1.26-0.77,2.25-0.77
				c1.98,0,3.52,1.59,3.52,3.57c0,1.1-0.5,1.98-1.21,2.64c-2.47,2.25-5.61,3.79-10.45,3.79
				C450.01,137.53,443.53,130.71,443.53,122.3z"/>
			<path class="st0" d="M476.34,100.59c0-2.31,1.87-4.18,4.18-4.18c2.31,0,4.18,1.87,4.18,4.18v18.25l10.45-9.89
				c1.21-1.15,2.2-1.87,3.68-1.87c2.25,0,3.68,1.81,3.68,3.74c0,1.43-0.77,2.53-1.92,3.63l-6.6,5.66l7.86,10.61
				c0.71,0.99,1.04,1.76,1.04,2.69c0,2.25-1.81,3.79-3.9,3.79c-1.65,0-2.64-0.55-3.63-1.92l-7.31-10.06l-3.35,3.02v4.78
				c0,2.31-1.87,4.18-4.18,4.18c-2.31,0-4.18-1.87-4.18-4.18V100.59z"/>
			<path class="st0" d="M522.07,137.53c-8.85,0-15.39-6.21-15.39-15.23v-0.11c0-8.41,5.99-15.34,14.57-15.34
				c9.84,0,14.18,8.08,14.18,14.18c0,2.42-1.7,4.01-3.9,4.01h-16.55c0.82,3.79,3.46,5.77,7.2,5.77c2.31,0,4.23-0.71,5.94-1.98
				c0.6-0.44,1.15-0.66,2.03-0.66c1.87,0,3.24,1.43,3.24,3.3c0,1.1-0.49,1.92-1.1,2.47C529.71,136.15,526.36,137.53,522.07,137.53z
				 M527.46,119.83c-0.5-3.74-2.69-6.27-6.21-6.27c-3.46,0-5.72,2.47-6.38,6.27H527.46z"/>
			<path class="st0" d="M541.8,111.25c0-2.31,1.87-4.18,4.18-4.18c2.31,0,4.18,1.87,4.18,4.18v1.32c1.21-2.86,3.19-5.5,5.66-5.5
				c2.58,0,4.07,1.7,4.07,4.07c0,2.2-1.43,3.52-3.13,3.9c-4.23,0.99-6.6,4.23-6.6,10.17v7.81c0,2.31-1.87,4.18-4.18,4.18
				c-2.31,0-4.18-1.87-4.18-4.18V111.25z"/>
		</g>
	</g>
	<g>
		<path class="st1" d="M88.05,83.22c1.07-6.51,4.42-11.88,9.49-15.64v-3.3H79.19V24.66l-22.15,8.67v30.94H37.31L26.87,83.22h30.17
			v37.01c0,18.07,9.18,23.46,22.73,23.46c6.54,0,11.5-1.35,15.77-3.57c-3.96-1.85-7.74-4.15-11.22-6.9l-1.09-0.86l5.41-8.33
			c-0.76,0.07-1.53,0.12-2.32,0.12c-4.95,0-7.14-2.48-7.14-7.58V83.22H88.05z"/>
		<g>
			<defs>
				<path id="SVGID_1_" d="M85.26,132.03l9.47-14.57c8.45,6.12,17.34,9.33,24.63,9.33c6.41,0,9.33-2.33,9.33-5.83v-0.29
					c0-4.81-7.58-6.41-16.17-9.03c-10.93-3.21-23.32-8.31-23.32-23.46v-0.29c0-15.88,12.82-24.77,28.56-24.77
					c9.91,0,20.69,3.35,29.14,9.03l-8.45,15.3c-7.72-4.52-15.45-7.29-21.13-7.29c-5.39,0-8.16,2.33-8.16,5.39v0.29
					c0,4.37,7.43,6.41,15.88,9.33c10.93,3.64,23.61,8.89,23.61,23.17v0.29c0,17.34-12.97,25.21-29.87,25.21
					C107.84,143.84,95.6,140.19,85.26,132.03z"/>
			</defs>
			<clipPath id="SVGID_2_">
				<use xlink:href="#SVGID_1_"  style="overflow:visible;"/>
			</clipPath>
			<g class="st2">
				<polygon class="st3" points="85.55,96.67 163.22,61.41 86.59,61.41 				"/>
				<polygon class="st4" points="86.2,99.01 167.12,88.34 163.22,61.41 85.55,96.67 				"/>
				<polygon class="st5" points="85.55,112.54 167.12,109.16 167.12,88.34 86.2,99.01 				"/>
				<polygon class="st6" points="146.95,153 95.82,112.12 167.12,109.16 				"/>
				<polygon class="st7" points="95.82,112.12 146.95,153 146.95,173.04 59.79,153 85.55,112.54 				"/>
			</g>
		</g>
		<path class="st0" d="M8.96,85.69c-0.05,0-0.11,0-0.16-0.01c-1.05-0.09-1.83-1.01-1.74-2.06c1.78-21.09,11.36-40.64,26.96-55.05
			C49.7,14.08,70.12,6.1,91.5,6.1c21.22,0,41.52,7.88,57.17,22.18c15.55,14.21,25.21,33.54,27.2,54.42c0.1,1.05-0.67,1.98-1.72,2.08
			c-1.06,0.1-1.98-0.67-2.08-1.72c-3.98-41.7-38.61-73.15-80.56-73.15c-41.71,0-77.13,32.52-80.64,74.03
			C10.77,84.94,9.94,85.69,8.96,85.69z"/>
		<polygon points="79.19,24.66 57.04,64.27 57.04,33.33 		"/>
	</g>
</g>
</svg>
